<svg xmlns="http://www.w3.org/2000/svg" viewBox="-0.15 -0.17 400.29 400.37"><g fill-rule="evenodd"><path d="M145.684 84.011c-42.138 3.303-74.425 31.489-87.007 75.957-.905 3.2-3.01 12.544-3.01 13.364 0 .219 5.201.335 15.096.335h15.096l.92-6.084c6.048-40 23.83-67.514 48.939-75.722 16.19-5.292 40.314-2.159 56.206 7.3 18.715 11.14 26.3 24.849 32.001 57.839l.605 3.5 3.568.095 3.569.094.008-17.594c.008-17.043.392-39.25.86-49.678l.228-5.084h-6.976l-.398 3.417c-1.575 13.535-5.885 18.079-12.629 13.313a3343.73 3343.73 0 0 1-5.478-3.886c-19.155-13.611-38.429-18.982-61.598-17.166m120.983 7.255v2.963l4.735.397c14.161 1.186 18.269 4.135 20.162 14.473.494 2.698.577 6.77.684 33.818l.123 30.75h28.962l.004-28.084c.003-27.96.178-33.566 1.195-38.404 1.839-8.742 6.72-11.665 21.218-12.704l3.25-.233v-5.94l-7.75.266c-4.263.146-18.85.265-32.417.265-13.566 0-28.154-.119-32.416-.265l-7.75-.266v2.964M19.966 191.595c-4.335 2.264-5.029 9.64-1.182 12.55 2.22 1.679 5.796 1.858 7.949.399 1.684-1.141 1.504-1.651-.253-.717-5.178 2.753-9.831-2.01-8.026-8.217 1.068-3.676 5.586-5.348 7.726-2.86 1.131 1.315 2.504 1.195 1.781-.155-1.036-1.937-5.205-2.458-7.995-1m20.349.322c-.222.687-1.434 3.839-2.693 7.004-2.21 5.555-2.572 6.751-2.039 6.741.62-.013 1.074-.635 1.82-2.495l.803-2 3.314-.089 3.313-.089.834 2.057c.873 2.155 1.717 3.037 2.324 2.429.729-.729-5.333-14.808-6.376-14.808-.742 0-.966.215-1.3 1.25m15.907-1.028c-.33.33-.259 13.869.075 14.397.901 1.422 1.538.099 1.42-2.949l-.117-3.004h3.016l1.895 2.989c1.776 2.801 2.71 3.66 3.47 3.19.176-.109-.568-1.58-1.653-3.27l-1.973-3.072 1.15-.59c3.009-1.544 2.846-5.848-.277-7.266-1.39-.63-6.491-.94-7.006-.425m17.945-.049c-.412.197-.272 14.188.146 14.606 1.017 1.018 1.521-.09 1.413-3.108l-.107-3.005h2.95l1.778 2.855c1.789 2.874 2.638 3.684 3.513 3.348.356-.137-.03-.951-1.54-3.25l-2.014-3.068 1.171-.669c2.761-1.578 2.838-5.664.133-7.09-1.063-.56-6.601-1.02-7.443-.619m17.775 7.076c.111 7.414.203 7.961 1.274 7.621.58-.183.612-.639.522-7.533l-.096-7.337-.904-.001h-.905l.109 7.25m13.888-6.628c-3.756 1.707-5.268 6.919-3.189 10.994 1.767 3.465 7.475 4.495 10.373 1.872 1.036-.938.367-1.238-.948-.425-4.994 3.087-10.226-2.517-7.939-8.505 1.284-3.361 5.429-4.749 7.386-2.474.993 1.155 2.248 1.255 2.094.167-.267-1.878-5.032-2.875-7.777-1.629m20.02.265c-.128.508-1.369 3.818-2.759 7.356-1.39 3.537-2.441 6.519-2.335 6.625.586.586 1.481-.379 2.192-2.364l.779-2.17h6.536l.83 2.075c.875 2.187 1.476 2.828 2.34 2.497 1.054-.405-5.046-14.713-6.326-14.84-.879-.087-1.059.03-1.257.821m15.742-.636c-.063.137-.058 3.531.009 7.541l.124 7.292 3.554-.151c3.997-.17 5.401-.679 6.215-2.255.963-1.861.169-4.649-1.471-5.17-.705-.224-.963-.841-.351-.841 2.29 0 1.856-5.201-.517-6.193-1.196-.499-7.354-.682-7.563-.223m18.333 6.833c.051 3.896.163 7.281.249 7.523.196.551 1.671.378 1.626-.19-.018-.229-.056-3.566-.083-7.416l-.05-7-.917-.001h-.917l.092 7.084m13.908-6.529c-8.127 4.284-2.985 17.604 5.337 13.824 5.43-2.467 5.605-11.696.263-13.928-1.442-.602-4.363-.548-5.6.104m27.911 6.862.089 7.417H203.5l.103-5.333c.145-7.571-.085-9.5-1.136-9.5h-.813l.09 7.416m10.261-.333c.005 7.131.156 8.182 1.12 7.812.445-.171.54-1.075.617-5.912l.091-5.71 4.167 5.856c3.765 5.291 5.428 6.987 5.347 5.454-.008-.138-.014-3.475-.014-7.417v-7.166l-.75-.001h-.75l.112 5.5c.062 3.026-.019 5.501-.18 5.501-.16 0-2.064-2.475-4.23-5.5-3.211-4.485-4.086-5.5-4.737-5.5H212l.005 7.083m18.995-6.9c0 .101.251.663.558 1.25.306.587 1.641 3.764 2.965 7.061 2.364 5.886 2.91 6.795 3.862 6.429.397-.152 5.978-13.903 5.956-14.673-.015-.522-1.411-.224-1.56.333-.594 2.205-4.422 11.89-4.657 11.78-.16-.075-1.199-2.55-2.31-5.5-2.558-6.793-2.597-6.863-3.826-6.863-.543 0-.988.082-.988.183m20.972-.045c-.076.076-.096 3.451-.043 7.5l.096 7.362 4.237-.005c4.498-.005 5.738-.174 5.738-.784 0-.261-1.262-.378-4.083-.378h-4.084v-6l3.667-.167c4.858-.22 4.797-.805-.097-.927l-3.763-.095.097-2.739.096-2.739 3.917-.094c3.179-.076 3.917-.186 3.917-.583 0-.46-9.249-.795-9.695-.351m17.964.112c-.056.137-.028 3.475.064 7.416l.167 7.167h.787c.766 0 .789-.082.833-3l.046-3 1.334-.09 1.333-.09 2 3.09c1.63 2.519 2.169 3.109 2.917 3.195 1.194.138 1.231.253-1.085-3.328l-2.001-3.095 1.123-.576c2.998-1.538 2.863-5.889-.226-7.292-1.421-.645-7.063-.952-7.292-.397m19.463.307c-3.631 1.79-2.707 5.009 2.096 7.299 2.522 1.202 3.169 1.665 3.523 2.521 1.247 3.01-3.508 4.936-5.709 2.312-.957-1.141-1.37-1.253-1.969-.531-.68.819 1.18 2.395 3.181 2.696 3.652.547 6.312-1.059 6.312-3.811 0-2.121-.409-2.547-4.086-4.256-3.478-1.617-4.131-2.389-3.438-4.062.805-1.943 3.521-2.335 5.024-.725.996 1.066 1.241 1.154 1.951.704 2.369-1.501-4.101-3.518-6.885-2.147m15.606 6.526c.005 7.282.126 8.069 1.202 7.862 1.422-.273 1.032-14.945-.398-14.945H305l.005 7.083m13.79-6.446c-5.525 2.509-4.96 12.415.799 14.015 4.703 1.306 8.725-2.068 8.725-7.319 0-5.66-4.633-8.917-9.524-6.696m17.543 6.113c.005 7.329.123 8.338.955 8.178.466-.089.563-.905.707-5.918l.167-5.814 4.121 5.739c5.856 8.155 5.578 8.237 5.45-1.605-.096-7.314-.098-7.33-.834-7.331-.736 0-.737.007-.632 5.7.067 3.595-.012 5.628-.215 5.503-.176-.109-2.097-2.674-4.268-5.7-3.107-4.332-4.107-5.502-4.701-5.502h-.755l.005 6.75m20.218-6.528c-.308.308-.282 14.377.027 14.525.138.066 2.395.06 5.017-.013 5.893-.164 6.292-.772.557-.848l-3.99-.053v-6l3.666-.167c4.852-.22 4.8-.805-.083-.927l-3.75-.095v-5.644h4c3.333 0 4-.084 4-.5 0-.525-8.935-.787-9.444-.278m19.552.246c-3.671 1.66-2.929 5.051 1.559 7.12 3.187 1.47 4 2.209 4 3.636 0 2.849-4.221 3.802-6.116 1.38-.833-1.064-1.884-1.135-1.884-.128 0 2.617 6.572 3.262 8.75.858 2.153-2.377 1.081-4.499-3.303-6.534-2.4-1.114-3.202-1.655-3.461-2.336-1.067-2.808 3.036-4.725 5.255-2.455 1.02 1.044 2.225 1.084 2.025.067-.322-1.632-4.561-2.632-6.825-1.608m-313.771 1.034c3.381 1.748 1.535 6.164-2.578 6.164h-2.092v-6.666h1.85c1.017 0 2.286.226 2.82.502m18.307.414c2.613 2.425.996 5.75-2.796 5.75h-2.181v-6.666h1.994c1.715 0 2.134.128 2.983.916m67.151-.54c3.24 1.477 1.411 5.275-2.545 5.285l-1.917.005v-5.666h1.818c1 0 2.19.169 2.644.376m31.227.527c3.247 2.732 3.049 9.093-.355 11.373-3.973 2.66-8.186-2.694-6.549-8.323 1.06-3.647 4.427-5.135 6.904-3.05m97.856.217c2.224 2.585.432 5.546-3.356 5.546h-1.855v-6.744l2.211.141c1.908.121 2.32.266 3 1.057m47.061-.444c3.172 1.934 3.297 9.51.19 11.546-2.294 1.502-5.546.374-6.628-2.301-2.406-5.945 1.844-12.046 6.438-9.245m-280.815 4.261c1.471 3.73 1.471 3.729-1.624 3.729-3.075 0-3.041.079-1.624-3.686 1.715-4.556 1.471-4.552 3.248-.043m85.293-.321c.687 1.806 1.25 3.381 1.25 3.5 0 .119-1.2.217-2.667.217-1.467 0-2.667-.108-2.667-.241 0-.444 2.487-6.759 2.661-6.759.095.001.735 1.478 1.423 3.283m20.609 3.025c2.516 2.516.474 5.359-3.849 5.359h-1.844v-6.334h2.359c2.163 0 2.44.081 3.334.975m-92.168 37.609c11.161 50.206 45.903 78.601 96.142 78.578 22.029-.01 34.028-3.896 54.981-17.807 8.353-5.545 10.66-6.134 13.368-3.41 1.989 2 3.59 7.492 4.17 14.305l.234 2.75h7.006l-.228-5.25c-.481-11.057-.848-32.995-.856-51.166L231.667 236h-7.208l-.432 3.583c-3.006 24.937-6.306 35.28-15.129 47.417-13.626 18.744-47.891 27.956-72.335 19.448-23.882-8.313-42.054-33.492-48.557-67.281-.212-1.1-.46-2.263-.551-2.584-.156-.544-1.182-.583-15.484-.583H56.654l.204.917m235.38 25.166c-.219 40.99-.152 40.867-23.655 43.115l-1.916.183v6.038l1.583-.202c6.473-.829 64.978-1.091 75.667-.34l2.75.194V305.432l-3.442-.223c-15.997-1.034-20.268-4.711-21.538-18.542-.207-2.256-.352-13.473-.353-27.25L321.333 236h-28.956l-.139 26.083" fill="#dfcd81"/><path d="M185.167.358C74.57 8.332-8.437 105.367.506 216.224c9.299 115.259 114.271 198.719 228.661 181.799C342.95 381.193 418.743 273.153 396.146 160 376.505 61.647 285.908-6.905 185.167.358m-22.935 83.656c17.466 1.42 31.08 6.813 47.538 18.832 6.264 4.575 8.569 5.07 11.153 2.398 2.083-2.155 3.886-8.009 4.57-14.838l.244-2.428 3.547.094 3.547.095-.093 2.333c-.52 12.977-.76 24.417-.953 45.417l-.228 24.75h-7.105l-.754-4.417c-4.608-27.005-9.064-37.237-21.337-48.997-17.438-16.71-49.063-22.846-70.795-13.735-22.813 9.563-39.721 37.938-44.879 75.315a233.092 233.092 0 0 1-.543 3.75l-.174 1.084H55.422l.762-3.751c11.455-56.378 53.206-90.199 106.048-85.902M279.5 88.669c18.966.58 61.947.247 66.417-.515L347 87.97v6.303l-2.917.224c-22.458 1.717-22.741 2.375-22.747 52.92l-.003 26.25h-28.948l-.138-30.25c-.163-35.393-.293-37.023-3.346-41.874-2.521-4.005-9.959-6.876-17.814-6.876-.73 0-2.023-.096-2.874-.212l-1.546-.212V87.97l1.083.187c.596.102 5.883.333 11.75.512m-17.708 102.732c-.091.146-1.881.266-3.978.266H254v5.666h3.667c3.037 0 3.666.086 3.666.5 0 .406-.548.501-2.916.505-4.559.007-4.417-.096-4.417 3.201v2.794h4.024c3.654 0 4.015.054 3.913.584-.1.519-.654.593-5.025.675l-4.912.092-.004-6.258c-.002-3.443-.096-6.818-.208-7.5l-.206-1.241 4.959-.093c4.616-.086 5.7.081 5.251.809m104.333 0c-.09.146-1.88.266-3.978.266h-3.814v5.666H362c3.037 0 3.667.086 3.667.5 0 .414-.63.5-3.667.5h-3.667v6h4.025c3.653 0 4.014.054 3.912.584-.099.519-.653.593-5.024.675l-4.913.092-.004-6.758c-.003-3.718-.094-7.093-.203-7.5-.198-.739-.182-.741 4.754-.834 4.611-.086 5.695.081 5.245.809m-339.486-.082c1.728.882 2.244 2.128 1.04 2.511-.475.15-.925-.095-1.64-.895-2.966-3.319-7.706-.151-7.706 5.15 0 5.218 4.139 8.071 8.13 5.605 1.299-.803 2.206-.664 1.47.226-2.552 3.084-9.137 1.961-10.994-1.875-3.243-6.7 3.334-13.97 9.7-10.722m16.137-.236c.099.23 1.398 3.417 2.887 7.084a1141.97 1141.97 0 0 0 2.9 7.107c.144.328-.096.414-.933.334-1.04-.1-1.189-.266-1.961-2.188l-.836-2.079-3.352-.004-3.352-.004-.69 2.084c-.591 1.784-.816 2.098-1.565 2.188-1.13.137-1.266.687 1.743-7.046 1.44-3.699 2.71-6.988 2.823-7.309.241-.684 2.055-.814 2.336-.167m20.345.043c3.426 1.431 3.356 6.787-.102 7.925-.447.147.638 2.128 3.229 5.891.529.768.523.774-.607.667-1.034-.099-1.328-.397-3.141-3.184-1.931-2.97-2.043-3.076-3.25-3.084l-1.25-.008v6.378l-.917-.106-.916-.105-.167-7.167c-.092-3.941-.12-7.279-.064-7.416.184-.446 6.024-.276 7.185.209m17.973-.005c3.136 1.327 3.467 5.832.551 7.491-1.248.711-1.306.483 1.016 4.018l1.993 3.037h-.942c-1.116 0-1.466-.357-3.68-3.75-1.569-2.405-1.765-2.584-2.846-2.584h-1.161l-.096 3.084-.096 3.083-.916.105-.917.106-.004-6.272c-.002-3.45-.096-6.835-.21-7.522l-.207-1.25H76.8c1.971 0 3.638.176 4.294.454m12.577 6.296c.003 3.712.095 7.087.206 7.5.176.655.075.75-.799.75-1.356 0-1.401-.266-1.407-8.25l-.004-6.75h2l.004 6.75m18.301-6.166c1.702.871 2.288 1.92 1.352 2.42-.628.337-.855.254-1.721-.632-3.5-3.581-8.501.39-7.778 6.176.555 4.443 4.418 6.523 8.183 4.407 1.68-.944 2.601-.426 1.101.619-6.633 4.622-14.164-2.265-10.653-9.741 1.623-3.456 6.115-4.99 9.516-3.249m19.046 6.499c3.434 8.64 3.261 7.992 2.095 7.858-.796-.091-1.103-.439-1.935-2.191l-.989-2.084h-6.464l-.794 2.084c-.605 1.588-.969 2.108-1.529 2.19-1.073.155-.985-.222 1.551-6.647 1.257-3.187 2.469-6.356 2.692-7.043.359-1.102.534-1.25 1.482-1.25h1.075l2.816 7.083m19.343-5.828c1.367 1.531 1.345 3.297-.062 4.9-.72.819-.881 1.178-.53 1.178 1.17 0 2.313 2.027 2.143 3.798-.295 3.067-2.235 4.02-7.745 3.806l-2.667-.104-.09-7.445-.09-7.444 4.035.111 4.035.111.971 1.089m11.429-.505c.11.412.203 3.787.205 7.5l.005 6.75h-2l-.004-6.25c-.002-3.438-.096-6.813-.21-7.5-.253-1.534 1.603-1.997 2.004-.5m18.398.078c4.162 2.439 4.242 10.334.132 13.054-3.956 2.617-9.103.622-10.358-4.016-1.81-6.691 4.586-12.344 10.226-9.038m23.402 6.755.089 7.417h-.85c-1.142 0-1.12.142-1.231-7.932l-.098-7.099 1 .099 1 .098.09 7.417m14.141-1.957 3.936 5.46v-11.086h.788c1.042 0 1.212 1.263 1.212 9.046v5.954h-.756c-.595 0-1.603-1.176-4.736-5.523-2.189-3.038-4.105-5.601-4.258-5.696-.154-.094-.259 2.354-.234 5.44l.045 5.612h-1.561l-.09-7.439-.09-7.44.904.106c.743.087 1.607 1.081 4.84 5.566m15.997-4.26c.31.66 1.41 3.435 2.445 6.167 1.036 2.731 1.927 5.011 1.981 5.065.117.118 4.027-10.367 4.356-11.682.17-.68.434-.916 1.026-.916 1.113 0 1.113 0-1.937 7.909-3.724 9.658-3.559 9.668-7.632-.472-1.459-3.632-2.744-6.803-2.855-7.045-.151-.329.085-.414.926-.333.922.088 1.23.326 1.69 1.307m43.366-.912c3.136 1.327 3.467 5.832.551 7.491-1.233.702-1.312.391 1.009 3.981l1.988 3.074h-.929c-1.105 0-1.741-.651-3.824-3.917-1.436-2.25-1.623-2.417-2.716-2.417H272v6.334h-2v-5.451c0-2.999-.096-6.374-.214-7.5l-.214-2.049h3.225c1.974 0 3.64.176 4.297.454m18.273.309c.644.433 1.133 1.046 1.133 1.417 0 .891-1.301 1.047-1.884.225-1.869-2.635-6.539-.796-5.237 2.062.385.846.589.972 3.975 2.468 3.38 1.493 4.451 3.541 3.159 6.04-1.324 2.56-8.527 2.605-9.336.058-.476-1.501 1.108-1.926 2.016-.54 1.044 1.593 4.65 1.712 5.47.181 1.08-2.018.305-3.119-3.376-4.796-3.574-1.629-4.808-3.659-3.599-5.918 1.073-2.005 5.464-2.69 7.679-1.197m11.556 6.82.09 7.417h-.85c-1.151 0-1.133.112-1.238-7.932l-.092-7.099 1 .099 1 .098.09 7.417m18.09-6.91c4.785 2.441 4.562 11.064-.351 13.598-4.856 2.505-9.82-.926-9.797-6.771.023-5.823 5.239-9.332 10.148-6.827m16.885 4.784 3.935 5.458.092-5.458.091-5.457H347.667l.004 6.75c.003 3.712.095 7.087.206 7.5.167.624.067.75-.593.75-.644 0-1.535-1.035-4.74-5.502-2.171-3.026-4.081-5.585-4.246-5.687-.171-.105-.298 2.248-.298 5.526v5.709l-.75-.106c-.749-.107-.75-.117-.84-7.524l-.089-7.416h.82c.679 0 1.503.946 4.757 5.457m39.623-4.925c1.117.53 1.71 1.491 1.314 2.131-.369.597-1.093.361-2.159-.705-1.828-1.828-5.009-.753-5.009 1.694 0 1.205.609 1.696 4.093 3.3 3.546 1.632 4.354 2.825 3.532 5.214-1.191 3.462-9.459 3.871-9.459.469 0-1.183 1.023-1.192 2.01-.018 2.181 2.592 6.731.712 5.496-2.271-.338-.816-1.023-1.304-3.469-2.47-3.409-1.625-3.823-1.993-4.088-3.628-.532-3.276 4.04-5.471 7.739-3.716M58 194.96v3.373h1.808c5.229 0 5.457-6.221.242-6.598l-2.05-.148v3.373m17.916-3.043c-.069.137-.063 1.637.013 3.333l.137 3.083h1.826c3.969 0 5.438-4.727 1.925-6.195-1.197-.5-3.693-.642-3.901-.221m67.572.16c-.103.269-.143 1.524-.088 2.789l.1 2.301 2.077-.003c3.259-.005 4.844-2.557 2.836-4.566-.922-.921-4.621-1.313-4.925-.521m31.179.174c-1.895.946-2.73 2.969-2.604 6.308.313 8.245 9.109 7.866 9.102-.392-.005-4.883-3.039-7.645-6.498-5.916M272 195.04v3.373l2.05-.148c5.46-.395 4.796-6.598-.706-6.598H272v3.373m47.685-2.807c-2.574 1.346-3.574 6.219-1.935 9.427 2.659 5.204 8.599 2.793 8.576-3.481-.017-4.738-3.312-7.688-6.641-5.946m-278.352.855c0 .109-.588 1.709-1.308 3.555L38.717 200h5.566l-1.329-3.409c-1.233-3.165-1.621-4.003-1.621-3.503m84.344 3.162c-.607 1.604-1.174 3.104-1.259 3.333-.117.312.531.417 2.582.417 2.467 0 2.717-.058 2.523-.583-1.134-3.078-2.393-6.081-2.549-6.082-.106-.001-.689 1.311-1.297 2.915m17.656 5.083v3h2.437c3.539 0 5.005-1.634 3.777-4.209-.658-1.379-1.631-1.791-4.235-1.791h-1.979v3m88.444 60.271c.205 23.9.644 43.935 1.052 47.979l.177 1.75h-3.67c-2.982 0-3.669-.09-3.669-.483 0-4.051-1.896-12.559-3.377-15.151-2.526-4.423-5.178-4.008-14.616 2.288-21.516 14.351-38.367 19.201-61.507 17.702-43.487-2.818-73.252-26.374-86.791-68.689-.747-2.334-2.709-10.038-2.709-10.636 0-.258 4.511-.364 15.462-.364h15.462l.227 1.583c3.731 25.978 19.164 52.036 37.609 63.498 25.411 15.793 66.783 8.512 83.8-14.748 8.336-11.394 11.132-20.072 14.441-44.819.392-2.926.762-5.401.822-5.5.061-.099 1.676-.134 3.589-.077l3.478.104.22 25.563m89.561-3.687c.008 32.924.565 37.59 5.027 42.052 2.933 2.933 10.641 5.031 18.485 5.031H347v6.432l-3.583-.233c-12.446-.808-62.196-.808-73.5 0l-3.25.233v-6.33l3.781-.216c9.33-.533 15.187-2.43 17.708-5.735 3.689-4.836 4.169-9.565 4.174-41.068l.003-22.083h29l.005 21.917" fill="#040404"/><path d="M227.429 88.247c1.061.066 2.711.065 3.667-.002.955-.067.087-.121-1.929-.12-2.017 0-2.799.055-1.738.122m-65.626 110.586c0 3.117.05 4.437.111 2.933.062-1.503.062-4.053.001-5.666-.061-1.613-.112-.383-.112 2.733m-20.339-.5c0 2.475.052 3.488.117 2.25a52.758 52.758 0 0 0 0-4.5c-.065-1.237-.117-.225-.117 2.25m-16.047 2.912c.87.069 2.295.069 3.166 0s.159-.125-1.583-.125-2.454.056-1.583.125M253.8 202.64c.024 1.304.173 1.845.533 1.943.348.093.38.048.105-.147-.217-.155-.457-1.029-.533-1.942l-.138-1.661.033 1.807" fill="#5c5434"/><path d="M40.259 200.244c.784.071 1.984.07 2.666-.002.683-.071.042-.129-1.425-.128-1.467.001-2.025.06-1.241.13m319.491 5.336c1.054.066 2.779.066 3.833 0 1.054-.066.192-.121-1.916-.121-2.109 0-2.971.055-1.917.121m-20.333 99.316c.32.084.845.084 1.166 0 .321-.083.059-.152-.583-.152-.642 0-.904.069-.583.152m3.671.343c.507.077 1.257.075 1.667-.004.41-.079-.005-.142-.922-.14-.916.003-1.252.068-.745.144m3.579 2.908v2.813l-1.25.131-1.25.13 1.416.056 1.417.056v-3c0-1.65-.075-3-.167-3-.091 0-.166 1.266-.166 2.814m-57.417 2.422a4.776 4.776 0 0 0 1.5 0c.412-.08.075-.145-.75-.145s-1.163.065-.75.145m36.515.012c1.429.063 3.679.063 5 0 1.321-.064.152-.115-2.598-.114-2.75 0-3.831.052-2.402.114m12.494.33c.784.071 1.984.07 2.666-.002.683-.072.042-.129-1.425-.128-1.467.001-2.025.06-1.241.13" fill="#847446"/><path d="M57.779 195.667c0 1.375.059 1.937.13 1.25.072-.688.072-1.813 0-2.5-.071-.688-.13-.125-.13 1.25m300.328-.334c0 1.192.06 1.679.134 1.084.074-.596.074-1.571 0-2.167-.074-.596-.134-.108-.134 1.083m-104.337.167c.002 1.1.064 1.51.138.911.074-.599.073-1.499-.003-2-.076-.501-.137-.011-.135 1.089m-.019 4.333c.003.734.072.994.151.58.08-.415.077-1.015-.006-1.334-.084-.318-.149.021-.145.754m104.367 1.667c-.001 1.65.056 2.367.126 1.593.069-.773.07-2.123.001-3-.068-.876-.126-.243-.127 1.407m-300.342.333c.002 1.284.062 1.768.134 1.076.072-.691.071-1.741-.003-2.333-.073-.592-.132-.026-.131 1.257m83.635 1.834c0 .641.068.904.152.583a2.734 2.734 0 0 0 0-1.167c-.084-.321-.152-.058-.152.584m3.506.902a4.776 4.776 0 0 0 1.5 0c.412-.08.075-.145-.75-.145s-1.163.065-.75.145m111.166.009c.871.069 2.296.069 3.167 0 .871-.068.158-.125-1.583-.125-1.742 0-2.454.057-1.584.125" fill="#7a744c"/><path d="M231.751 127.167c.003.733.072.994.151.579.08-.415.077-1.015-.006-1.333-.084-.319-.149.02-.145.754m-8.28 71.333c0 3.3.05 4.605.111 2.9a98.35 98.35 0 0 0-.001-6c-.061-1.595-.11-.2-.11 3.1m122.661-1.333c0 2.566.052 3.572.116 2.235a57.164 57.164 0 0 0-.001-4.667c-.064-1.229-.116-.135-.115 2.432M75.781 195.5c.001 1.467.06 2.025.13 1.241.071-.784.07-1.984-.002-2.666-.072-.683-.129-.042-.128 1.425m146.013 2c.001 2.2.055 3.057.12 1.904a40.713 40.713 0 0 0-.001-4c-.066-1.047-.12-.104-.119 2.096m-146.018 4.333c.002 1.284.062 1.768.134 1.076.072-.691.071-1.741-.003-2.333-.073-.592-.132-.026-.131 1.257m-35.848-.587c.968.068 2.468.067 3.333-.001.865-.069.072-.124-1.761-.123-1.833.001-2.541.057-1.572.124m191.816 70.421c0 .641.069.904.152.583a2.734 2.734 0 0 0 0-1.167c-.083-.321-.152-.058-.152.584m64.506 38.914c1.329.063 3.504.063 4.833 0 1.329-.063.242-.115-2.416-.115-2.659 0-3.746.052-2.417.115m19.659-.007c.592.074 1.642.075 2.334.003.691-.073.207-.133-1.076-.134-1.284-.002-1.85.057-1.258.131" fill="#2d2a1a"/><path d="M231.744 277.667c0 .641.069.904.152.583a2.734 2.734 0 0 0 0-1.167c-.083-.321-.152-.058-.152.584" fill="#7c7c4c"/><path d="M271.767 202c0 1.008.062 1.421.138.917a7.31 7.31 0 0 0 0-1.834c-.076-.504-.138-.091-.138.917" fill="#3a3424"/><path d="M271.779 195.667c0 1.375.059 1.937.13 1.25.072-.688.072-1.813 0-2.5-.071-.688-.13-.125-.13 1.25M91.802 199c0 3.025.051 4.262.113 2.75a82.673 82.673 0 0 0 0-5.5c-.062-1.513-.113-.275-.113 2.75m268.615 5.578c.87.069 2.295.069 3.166 0 .871-.068.159-.125-1.583-.125s-2.454.057-1.583.125" fill="#3c3c24"/></g></svg>